<?xml version="1.0" encoding="utf-8"?>
<!-- Generator: Adobe Illustrator 26.0.3, SVG Export Plug-In . SVG Version: 6.00 Build 0)  -->
<svg version="1.1" id="Layer_2" xmlns="http://www.w3.org/2000/svg" xmlns:xlink="http://www.w3.org/1999/xlink" x="0px" y="0px"
	 viewBox="0 0 500 500" style="enable-background:new 0 0 500 500;" xml:space="preserve">
<style type="text/css">
	.st0{fill:#FFFDFD;}
</style>
<polygon class="st0" points="499.97,500 150.85,500 101.2,500 0,500 0,398.8 0,349.15 0,0.03 198.11,0.03 272.62,0 297.17,0.03 
	302.68,0.03 324.52,0 349.5,0 500,0 500,77.29 499.97,98.62 500,150.5 499.97,197.32 499.97,208.03 499.97,307.49 499.97,402.68 "/>
<polygon points="394.84,466.49 234.82,266.21 336.7,155.77 242.58,155.77 165.55,238.47 165.55,8 84.6,8 84.6,426.1 180.98,323.19 
	189.09,333.48 307.71,479.63 317.44,492 415.4,492 "/>
</svg>
